<mxfile host="app.diagrams.net" agent="Mozilla/5.0 (Windows NT 10.0; Win64; x64) AppleWebKit/537.36 (KHTML, like Gecko) Chrome/133.0.0.0 Safari/537.36" version="24.7.14">
  <diagram name="Page-1" id="mONdHRIMYKnqM0TNgiL-">
    <mxGraphModel dx="1500" dy="2062" grid="1" gridSize="10" guides="1" tooltips="1" connect="1" arrows="1" fold="1" page="1" pageScale="1" pageWidth="827" pageHeight="1169" math="0" shadow="0">
      <root>
        <mxCell id="0" />
        <mxCell id="1" parent="0" />
        <mxCell id="kMyG0eLLcCKG6U6ZfWgO-1" value="Data Provider" style="shape=cylinder3;whiteSpace=wrap;html=1;boundedLbl=1;backgroundOutline=1;size=15;fillColor=#d5e8d4;strokeColor=#82b366;gradientColor=#97d077;" vertex="1" parent="1">
          <mxGeometry x="30" y="360" width="60" height="80" as="geometry" />
        </mxCell>
        <mxCell id="kMyG0eLLcCKG6U6ZfWgO-17" value="Operational Concerns" style="rounded=1;whiteSpace=wrap;html=1;arcSize=4;horizontal=1;verticalAlign=top;gradientColor=#99CCFF;fontStyle=1;fontSize=15;" vertex="1" parent="1">
          <mxGeometry x="160" y="-20" width="370" height="750" as="geometry" />
        </mxCell>
        <mxCell id="kMyG0eLLcCKG6U6ZfWgO-2" value="&lt;b&gt;Structured Direct Access&lt;/b&gt;&lt;br&gt;&lt;i style=&quot;&quot;&gt;&lt;font style=&quot;font-size: 10px;&quot;&gt;Raw SQL, Views, Stored Procedures&lt;/font&gt;&lt;/i&gt;&lt;div style=&quot;font-size: 11px;&quot;&gt;&lt;i&gt;&lt;br&gt;&lt;/i&gt;&lt;/div&gt;" style="rounded=1;whiteSpace=wrap;html=1;shadow=1;fillColor=#FFFFFF;gradientColor=#E6E6E6;strokeColor=#666666;" vertex="1" parent="1">
          <mxGeometry x="257" y="120" width="176" height="60" as="geometry" />
        </mxCell>
        <mxCell id="kMyG0eLLcCKG6U6ZfWgO-6" value="&lt;div&gt;&lt;b style=&quot;&quot;&gt;Events&lt;/b&gt;&lt;/div&gt;&lt;div style=&quot;font-size: 10px;&quot;&gt;&lt;i&gt;Kafka, Kinesis, Pub/Sub&lt;/i&gt;&amp;nbsp;&lt;b style=&quot;&quot;&gt;&lt;/b&gt;&lt;/div&gt;" style="rounded=1;whiteSpace=wrap;html=1;fontColor=#666666;" vertex="1" parent="1">
          <mxGeometry x="257" y="432" width="176" height="60" as="geometry" />
        </mxCell>
        <mxCell id="kMyG0eLLcCKG6U6ZfWgO-7" value="&lt;div&gt;&lt;b style=&quot;&quot;&gt;Read-only Replicas&lt;/b&gt;&lt;/div&gt;" style="rounded=1;whiteSpace=wrap;html=1;fontColor=#666666;" vertex="1" parent="1">
          <mxGeometry x="257" y="536" width="176" height="60" as="geometry" />
        </mxCell>
        <mxCell id="kMyG0eLLcCKG6U6ZfWgO-8" value="&lt;div&gt;&lt;b style=&quot;&quot;&gt;Data Warehouses / Lakes&lt;/b&gt;&lt;/div&gt;&lt;div&gt;&lt;i&gt;&lt;font style=&quot;font-size: 10px;&quot;&gt;Snowflake, BigQuery, Redshift&lt;/font&gt;&lt;/i&gt;&lt;/div&gt;" style="rounded=1;whiteSpace=wrap;html=1;fontColor=#666666;" vertex="1" parent="1">
          <mxGeometry x="257" y="640" width="176" height="60" as="geometry" />
        </mxCell>
        <mxCell id="kMyG0eLLcCKG6U6ZfWgO-10" value="" style="endArrow=classic;html=1;rounded=1;edgeStyle=orthogonalEdgeStyle;" edge="1" parent="1" source="kMyG0eLLcCKG6U6ZfWgO-1" target="kMyG0eLLcCKG6U6ZfWgO-2">
          <mxGeometry width="50" height="50" relative="1" as="geometry">
            <mxPoint x="90" y="420.090909090909" as="sourcePoint" />
            <mxPoint x="180" y="160" as="targetPoint" />
            <Array as="points">
              <mxPoint x="200" y="400" />
              <mxPoint x="200" y="150" />
            </Array>
          </mxGeometry>
        </mxCell>
        <mxCell id="kMyG0eLLcCKG6U6ZfWgO-13" value="" style="endArrow=classic;html=1;rounded=1;edgeStyle=orthogonalEdgeStyle;" edge="1" parent="1" source="kMyG0eLLcCKG6U6ZfWgO-1" target="kMyG0eLLcCKG6U6ZfWgO-6">
          <mxGeometry width="50" height="50" relative="1" as="geometry">
            <mxPoint x="90" y="420.090909090909" as="sourcePoint" />
            <mxPoint x="300" y="180" as="targetPoint" />
            <Array as="points">
              <mxPoint x="200" y="400" />
              <mxPoint x="200" y="462" />
            </Array>
          </mxGeometry>
        </mxCell>
        <mxCell id="kMyG0eLLcCKG6U6ZfWgO-14" value="" style="endArrow=classic;html=1;rounded=1;edgeStyle=orthogonalEdgeStyle;" edge="1" parent="1" source="kMyG0eLLcCKG6U6ZfWgO-1" target="kMyG0eLLcCKG6U6ZfWgO-7">
          <mxGeometry width="50" height="50" relative="1" as="geometry">
            <mxPoint x="90" y="420.090909090909" as="sourcePoint" />
            <mxPoint x="310" y="190" as="targetPoint" />
            <Array as="points">
              <mxPoint x="200" y="400" />
              <mxPoint x="200" y="570" />
            </Array>
          </mxGeometry>
        </mxCell>
        <mxCell id="kMyG0eLLcCKG6U6ZfWgO-18" value="" style="endArrow=classic;html=1;rounded=1;edgeStyle=orthogonalEdgeStyle;startArrow=classic;startFill=1;" edge="1" parent="1" source="kMyG0eLLcCKG6U6ZfWgO-2" target="kMyG0eLLcCKG6U6ZfWgO-21">
          <mxGeometry width="50" height="50" relative="1" as="geometry">
            <mxPoint x="170" y="360" as="sourcePoint" />
            <mxPoint x="610" y="420.090909090909" as="targetPoint" />
            <Array as="points" />
          </mxGeometry>
        </mxCell>
        <mxCell id="kMyG0eLLcCKG6U6ZfWgO-19" value="" style="endArrow=classic;html=1;rounded=1;edgeStyle=orthogonalEdgeStyle;startArrow=oval;startFill=1;" edge="1" parent="1" source="kMyG0eLLcCKG6U6ZfWgO-1" target="kMyG0eLLcCKG6U6ZfWgO-8">
          <mxGeometry width="50" height="50" relative="1" as="geometry">
            <mxPoint x="90" y="420.090909090909" as="sourcePoint" />
            <mxPoint x="280" y="590" as="targetPoint" />
            <Array as="points">
              <mxPoint x="200" y="400" />
              <mxPoint x="200" y="670" />
            </Array>
          </mxGeometry>
        </mxCell>
        <mxCell id="kMyG0eLLcCKG6U6ZfWgO-20" value="Organisational:&amp;nbsp;&lt;b&gt;Data Governance, Risk Mitigation,&amp;nbsp;&lt;/b&gt;&lt;div&gt;&lt;span style=&quot;background-color: initial;&quot;&gt;Operational:&amp;nbsp;&lt;b&gt;Monitoring,&amp;nbsp;&lt;/b&gt;&lt;/span&gt;&lt;b style=&quot;background-color: initial;&quot;&gt;Access Control, Performance&lt;/b&gt;&lt;/div&gt;&lt;div&gt;&lt;span style=&quot;background-color: initial;&quot;&gt;Architectural:&amp;nbsp;&lt;b&gt;Scalability,&amp;nbsp;&lt;/b&gt;&lt;/span&gt;&lt;b style=&quot;background-color: initial;&quot;&gt;Reliability&lt;/b&gt;&lt;/div&gt;&lt;div&gt;&lt;br&gt;&lt;/div&gt;" style="text;html=1;align=left;verticalAlign=middle;whiteSpace=wrap;rounded=0;" vertex="1" parent="1">
          <mxGeometry x="170" y="20" width="320" height="60" as="geometry" />
        </mxCell>
        <mxCell id="kMyG0eLLcCKG6U6ZfWgO-21" value="Data Consumer" style="shape=cylinder3;whiteSpace=wrap;html=1;boundedLbl=1;backgroundOutline=1;size=15;fillColor=#fff2cc;strokeColor=#d6b656;gradientColor=#ffd966;" vertex="1" parent="1">
          <mxGeometry x="560" y="110" width="60" height="80" as="geometry" />
        </mxCell>
        <mxCell id="kMyG0eLLcCKG6U6ZfWgO-22" value="" style="endArrow=classic;html=1;rounded=1;edgeStyle=orthogonalEdgeStyle;strokeColor=default;align=center;verticalAlign=middle;fontFamily=Helvetica;fontSize=11;fontColor=default;labelBackgroundColor=default;startArrow=classic;startFill=1;" edge="1" parent="1" target="kMyG0eLLcCKG6U6ZfWgO-5" source="kMyG0eLLcCKG6U6ZfWgO-23">
          <mxGeometry width="50" height="50" relative="1" as="geometry">
            <mxPoint x="446" y="250" as="sourcePoint" />
            <mxPoint x="610" y="520.090909090909" as="targetPoint" />
            <Array as="points" />
          </mxGeometry>
        </mxCell>
        <mxCell id="kMyG0eLLcCKG6U6ZfWgO-23" value="Data Consumer" style="shape=cylinder3;whiteSpace=wrap;html=1;boundedLbl=1;backgroundOutline=1;size=15;fillColor=#fff2cc;strokeColor=#d6b656;gradientColor=#ffd966;" vertex="1" parent="1">
          <mxGeometry x="560" y="214" width="60" height="80" as="geometry" />
        </mxCell>
        <mxCell id="kMyG0eLLcCKG6U6ZfWgO-25" value="Data Consumer" style="shape=cylinder3;whiteSpace=wrap;html=1;boundedLbl=1;backgroundOutline=1;size=15;fillColor=#fff2cc;strokeColor=#d6b656;gradientColor=#ffd966;" vertex="1" parent="1">
          <mxGeometry x="560" y="318" width="60" height="80" as="geometry" />
        </mxCell>
        <mxCell id="kMyG0eLLcCKG6U6ZfWgO-26" value="" style="endArrow=classic;html=1;rounded=1;edgeStyle=orthogonalEdgeStyle;" edge="1" parent="1" target="kMyG0eLLcCKG6U6ZfWgO-27" source="kMyG0eLLcCKG6U6ZfWgO-6">
          <mxGeometry width="50" height="50" relative="1" as="geometry">
            <mxPoint x="446" y="460" as="sourcePoint" />
            <mxPoint x="610" y="730.090909090909" as="targetPoint" />
            <Array as="points" />
          </mxGeometry>
        </mxCell>
        <mxCell id="kMyG0eLLcCKG6U6ZfWgO-27" value="Data Consumer" style="shape=cylinder3;whiteSpace=wrap;html=1;boundedLbl=1;backgroundOutline=1;size=15;fillColor=#fff2cc;strokeColor=#d6b656;gradientColor=#ffd966;" vertex="1" parent="1">
          <mxGeometry x="560" y="422" width="60" height="80" as="geometry" />
        </mxCell>
        <mxCell id="kMyG0eLLcCKG6U6ZfWgO-28" value="" style="endArrow=classic;html=1;rounded=1;edgeStyle=orthogonalEdgeStyle;" edge="1" parent="1" target="kMyG0eLLcCKG6U6ZfWgO-29" source="kMyG0eLLcCKG6U6ZfWgO-7">
          <mxGeometry width="50" height="50" relative="1" as="geometry">
            <mxPoint x="446" y="570" as="sourcePoint" />
            <mxPoint x="610" y="840.090909090909" as="targetPoint" />
            <Array as="points" />
          </mxGeometry>
        </mxCell>
        <mxCell id="kMyG0eLLcCKG6U6ZfWgO-29" value="Data Consumer" style="shape=cylinder3;whiteSpace=wrap;html=1;boundedLbl=1;backgroundOutline=1;size=15;fillColor=#fff2cc;strokeColor=#d6b656;gradientColor=#ffd966;" vertex="1" parent="1">
          <mxGeometry x="560" y="526" width="60" height="80" as="geometry" />
        </mxCell>
        <mxCell id="kMyG0eLLcCKG6U6ZfWgO-30" value="" style="endArrow=classic;html=1;rounded=1;edgeStyle=orthogonalEdgeStyle;" edge="1" parent="1" target="kMyG0eLLcCKG6U6ZfWgO-31" source="kMyG0eLLcCKG6U6ZfWgO-8">
          <mxGeometry width="50" height="50" relative="1" as="geometry">
            <mxPoint x="446" y="690" as="sourcePoint" />
            <mxPoint x="610" y="960.090909090909" as="targetPoint" />
            <Array as="points" />
          </mxGeometry>
        </mxCell>
        <mxCell id="kMyG0eLLcCKG6U6ZfWgO-31" value="Data Consumer" style="shape=cylinder3;whiteSpace=wrap;html=1;boundedLbl=1;backgroundOutline=1;size=15;fillColor=#fff2cc;strokeColor=#d6b656;gradientColor=#ffd966;" vertex="1" parent="1">
          <mxGeometry x="560" y="630" width="60" height="80" as="geometry" />
        </mxCell>
        <mxCell id="kMyG0eLLcCKG6U6ZfWgO-33" value="&lt;span style=&quot;forced-color-adjust: none; color: rgb(0, 0, 0); font-family: Helvetica; font-size: 12px; font-variant-ligatures: normal; font-variant-caps: normal; font-weight: 400; letter-spacing: normal; orphans: 2; text-align: left; text-indent: 0px; text-transform: none; widows: 2; word-spacing: 0px; -webkit-text-stroke-width: 0px; white-space: normal; background-color: initial; text-decoration-thickness: initial; text-decoration-style: initial; text-decoration-color: initial;&quot;&gt;Developmental:&lt;span&gt;&amp;nbsp;&lt;/span&gt;&lt;/span&gt;&lt;b style=&quot;forced-color-adjust: none; color: rgb(0, 0, 0); font-family: Helvetica; font-size: 12px; font-variant-ligatures: normal; font-variant-caps: normal; letter-spacing: normal; orphans: 2; text-align: left; text-indent: 0px; text-transform: none; widows: 2; word-spacing: 0px; -webkit-text-stroke-width: 0px; white-space: normal; background-color: initial; text-decoration-thickness: initial; text-decoration-style: initial; text-decoration-color: initial;&quot;&gt;Tight Coupling&lt;/b&gt;" style="text;whiteSpace=wrap;html=1;fontStyle=2" vertex="1" parent="1">
          <mxGeometry x="170" y="80" width="180" height="30" as="geometry" />
        </mxCell>
        <mxCell id="kMyG0eLLcCKG6U6ZfWgO-35" value="" style="endArrow=none;html=1;strokeWidth=1;rounded=1;edgeStyle=orthogonalEdgeStyle;strokeColor=#67AB9F;curved=0;entryX=0.25;entryY=1;entryDx=0;entryDy=0;" edge="1" parent="1" source="kMyG0eLLcCKG6U6ZfWgO-2" target="kMyG0eLLcCKG6U6ZfWgO-33">
          <mxGeometry width="50" height="50" relative="1" as="geometry">
            <mxPoint x="702" y="120" as="sourcePoint" />
            <mxPoint x="352.8571428571429" y="100" as="targetPoint" />
            <Array as="points">
              <mxPoint x="220" y="130" />
            </Array>
          </mxGeometry>
        </mxCell>
        <mxCell id="kMyG0eLLcCKG6U6ZfWgO-36" value="Could affect OData / Proxies , depending on implementation" style="text;whiteSpace=wrap;html=1;fontStyle=2;fontSize=10;" vertex="1" parent="1">
          <mxGeometry x="380" y="75" width="140" height="40" as="geometry" />
        </mxCell>
        <mxCell id="kMyG0eLLcCKG6U6ZfWgO-37" value="" style="endArrow=none;html=1;strokeWidth=1;rounded=1;edgeStyle=orthogonalEdgeStyle;strokeColor=#67AB9F;curved=0;" edge="1" parent="1" source="kMyG0eLLcCKG6U6ZfWgO-36" target="kMyG0eLLcCKG6U6ZfWgO-33">
          <mxGeometry width="50" height="50" relative="1" as="geometry">
            <mxPoint x="410" y="130" as="sourcePoint" />
            <mxPoint x="362.8571428571429" y="110" as="targetPoint" />
            <Array as="points" />
          </mxGeometry>
        </mxCell>
        <mxCell id="kMyG0eLLcCKG6U6ZfWgO-38" value="" style="endArrow=classic;html=1;rounded=1;edgeStyle=orthogonalEdgeStyle;" edge="1" parent="1" source="kMyG0eLLcCKG6U6ZfWgO-1" target="kMyG0eLLcCKG6U6ZfWgO-5">
          <mxGeometry width="50" height="50" relative="1" as="geometry">
            <mxPoint x="90" y="400" as="sourcePoint" />
            <mxPoint x="378" y="362" as="targetPoint" />
            <Array as="points">
              <mxPoint x="200" y="400" />
            </Array>
          </mxGeometry>
        </mxCell>
        <mxCell id="kMyG0eLLcCKG6U6ZfWgO-5" value="&lt;div&gt;&lt;b style=&quot;&quot;&gt;API Layer&lt;/b&gt;&lt;/div&gt;&lt;div&gt;&lt;i&gt;&lt;font style=&quot;font-size: 10px;&quot;&gt;GraphQL, REST, SOAP, gRPC&lt;/font&gt;&lt;/i&gt;&lt;/div&gt;" style="rounded=1;whiteSpace=wrap;html=1;fillColor=#FFFFFF;gradientColor=#E6E6E6;strokeColor=#666666;shadow=1;align=center;verticalAlign=middle;fontFamily=Helvetica;fontSize=12;fontColor=default;" vertex="1" parent="1">
          <mxGeometry x="257" y="224" width="176" height="60" as="geometry" />
        </mxCell>
        <mxCell id="kMyG0eLLcCKG6U6ZfWgO-39" value="" style="endArrow=classic;html=1;rounded=1;edgeStyle=orthogonalEdgeStyle;" edge="1" parent="1" source="kMyG0eLLcCKG6U6ZfWgO-1" target="kMyG0eLLcCKG6U6ZfWgO-4">
          <mxGeometry width="50" height="50" relative="1" as="geometry">
            <mxPoint x="90" y="400" as="sourcePoint" />
            <mxPoint x="345" y="284" as="targetPoint" />
            <Array as="points">
              <mxPoint x="200" y="400" />
              <mxPoint x="200" y="360" />
            </Array>
          </mxGeometry>
        </mxCell>
        <mxCell id="kMyG0eLLcCKG6U6ZfWgO-4" value="&lt;div&gt;&lt;b style=&quot;&quot;&gt;OData &amp;amp; Database Proxies&lt;/b&gt;&lt;/div&gt;&lt;div&gt;&lt;i&gt;&lt;font style=&quot;font-size: 10px;&quot;&gt;&amp;nbsp;ProxySQL, DataSunrise, Amazon RDS Proxy&lt;/font&gt;&lt;/i&gt;&lt;/div&gt;" style="rounded=1;whiteSpace=wrap;html=1;fontColor=#666666;" vertex="1" parent="1">
          <mxGeometry x="257" y="328" width="176" height="60" as="geometry" />
        </mxCell>
        <mxCell id="kMyG0eLLcCKG6U6ZfWgO-40" value="" style="endArrow=classic;html=1;rounded=1;edgeStyle=orthogonalEdgeStyle;strokeColor=default;align=center;verticalAlign=middle;fontFamily=Helvetica;fontSize=11;fontColor=default;labelBackgroundColor=default;startArrow=classic;startFill=1;" edge="1" parent="1" source="kMyG0eLLcCKG6U6ZfWgO-25" target="kMyG0eLLcCKG6U6ZfWgO-4">
          <mxGeometry width="50" height="50" relative="1" as="geometry">
            <mxPoint x="570" y="264" as="sourcePoint" />
            <mxPoint x="443" y="264" as="targetPoint" />
            <Array as="points" />
          </mxGeometry>
        </mxCell>
        <mxCell id="kMyG0eLLcCKG6U6ZfWgO-41" value="" style="endArrow=none;html=1;rounded=0;exitX=-0.001;exitY=0.439;exitDx=0;exitDy=0;exitPerimeter=0;dashed=1;" edge="1" parent="1" source="kMyG0eLLcCKG6U6ZfWgO-17">
          <mxGeometry width="50" height="50" relative="1" as="geometry">
            <mxPoint x="200" y="310" as="sourcePoint" />
            <mxPoint x="530" y="310" as="targetPoint" />
          </mxGeometry>
        </mxCell>
      </root>
    </mxGraphModel>
  </diagram>
</mxfile>
